<svg id="visual" viewBox="0 0 900 600" width="900" height="600" xmlns="http://www.w3.org/2000/svg" xmlns:xlink="http://www.w3.org/1999/xlink" version="1.1"><rect x="0" y="0" width="900" height="600" fill="#fffcf7"></rect><path d="M0 139L13.7 141.8C27.3 144.7 54.7 150.3 82 154.3C109.3 158.3 136.7 160.7 163.8 161.7C191 162.7 218 162.3 245.2 159.2C272.3 156 299.7 150 327 152.7C354.3 155.3 381.7 166.7 409 170.3C436.3 174 463.7 170 491 162.5C518.3 155 545.7 144 573 141.2C600.3 138.3 627.7 143.7 654.8 149.8C682 156 709 163 736.2 165.5C763.3 168 790.7 166 818 157.5C845.3 149 872.7 134 886.3 126.5L900 119L900 0L886.3 0C872.7 0 845.3 0 818 0C790.7 0 763.3 0 736.2 0C709 0 682 0 654.8 0C627.7 0 600.3 0 573 0C545.7 0 518.3 0 491 0C463.7 0 436.3 0 409 0C381.7 0 354.3 0 327 0C299.7 0 272.3 0 245.2 0C218 0 191 0 163.8 0C136.7 0 109.3 0 82 0C54.7 0 27.3 0 13.7 0L0 0Z" fill="#c3c2d2" stroke-linecap="round" stroke-linejoin="miter"></path></svg>