<svg id="visual" viewBox="0 0 900 600" width="900" height="600" xmlns="http://www.w3.org/2000/svg" xmlns:xlink="http://www.w3.org/1999/xlink" version="1.1"><rect x="0" y="0" width="900" height="600" fill="#f1e6d3"></rect><path d="M0 412L21.5 404.7C43 397.3 86 382.7 128.8 386.7C171.7 390.7 214.3 413.3 257.2 415.3C300 417.3 343 398.7 385.8 394.8C428.7 391 471.3 402 514.2 411.3C557 420.7 600 428.3 642.8 421C685.7 413.7 728.3 391.3 771.2 392.5C814 393.7 857 418.3 878.5 430.7L900 443L900 601L878.5 601C857 601 814 601 771.2 601C728.3 601 685.7 601 642.8 601C600 601 557 601 514.2 601C471.3 601 428.7 601 385.8 601C343 601 300 601 257.2 601C214.3 601 171.7 601 128.8 601C86 601 43 601 21.5 601L0 601Z" fill="#c2c3d2"></path><path d="M0 439L21.5 431.7C43 424.3 86 409.7 128.8 405.5C171.7 401.3 214.3 407.7 257.2 421C300 434.3 343 454.7 385.8 460.7C428.7 466.7 471.3 458.3 514.2 445.5C557 432.7 600 415.3 642.8 419C685.7 422.7 728.3 447.3 771.2 448.7C814 450 857 428 878.5 417L900 406L900 601L878.5 601C857 601 814 601 771.2 601C728.3 601 685.7 601 642.8 601C600 601 557 601 514.2 601C471.3 601 428.7 601 385.8 601C343 601 300 601 257.2 601C214.3 601 171.7 601 128.8 601C86 601 43 601 21.5 601L0 601Z" fill="#c9c0d5"></path><path d="M0 480L21.5 478C43 476 86 472 128.8 476.3C171.7 480.7 214.3 493.3 257.2 488.2C300 483 343 460 385.8 451.8C428.7 443.7 471.3 450.3 514.2 452.2C557 454 600 451 642.8 449C685.7 447 728.3 446 771.2 445.7C814 445.3 857 445.7 878.5 445.8L900 446L900 601L878.5 601C857 601 814 601 771.2 601C728.3 601 685.7 601 642.8 601C600 601 557 601 514.2 601C471.3 601 428.7 601 385.8 601C343 601 300 601 257.2 601C214.3 601 171.7 601 128.8 601C86 601 43 601 21.5 601L0 601Z" fill="#d5bbd4"></path><path d="M0 486L21.5 489.5C43 493 86 500 128.8 506.2C171.7 512.3 214.3 517.7 257.2 514.3C300 511 343 499 385.8 498.7C428.7 498.3 471.3 509.7 514.2 513.3C557 517 600 513 642.8 506.7C685.7 500.3 728.3 491.7 771.2 490C814 488.3 857 493.7 878.5 496.3L900 499L900 601L878.5 601C857 601 814 601 771.2 601C728.3 601 685.7 601 642.8 601C600 601 557 601 514.2 601C471.3 601 428.7 601 385.8 601C343 601 300 601 257.2 601C214.3 601 171.7 601 128.8 601C86 601 43 601 21.5 601L0 601Z" fill="#e3b5cd"></path><path d="M0 560L21.5 560.8C43 561.7 86 563.3 128.8 565.5C171.7 567.7 214.3 570.3 257.2 570C300 569.7 343 566.3 385.8 564.2C428.7 562 471.3 561 514.2 562.2C557 563.3 600 566.7 642.8 567.3C685.7 568 728.3 566 771.2 564.3C814 562.7 857 561.3 878.5 560.7L900 560L900 601L878.5 601C857 601 814 601 771.2 601C728.3 601 685.7 601 642.8 601C600 601 557 601 514.2 601C471.3 601 428.7 601 385.8 601C343 601 300 601 257.2 601C214.3 601 171.7 601 128.8 601C86 601 43 601 21.5 601L0 601Z" fill="#f0b0bf"></path></svg>